<svg width="298" height="67" fill="none" xmlns="http://www.w3.org/2000/svg"><path d="M291.44 57.9763C291.43 57.4555 291.602 56.9573 291.957 56.4815C292.365 56.0046 292.748 55.6064 293.106 55.2868L294.356 55.2623C295.241 55.2449 295.974 55.4389 296.555 55.8443C297.187 56.1965 297.512 56.8413 297.531 57.7786C297.537 58.0911 297.439 58.4316 297.238 58.8002C297.036 59.1167 296.756 59.4348 296.398 59.7544C296.09 60.0209 295.73 60.2363 295.316 60.4007C294.903 60.5651 294.513 60.6248 294.148 60.5799C293.625 60.486 293.046 60.1848 292.411 59.6763C291.776 59.1678 291.452 58.6012 291.44 57.9763ZM290.929 31.9657C290.918 31.3928 290.909 30.8981 290.9 30.4816C290.943 30.0119 291.063 29.4886 291.26 28.9117L290.736 2.19809C290.733 2.04187 290.834 1.88361 291.039 1.7233C291.296 1.5099 291.552 1.32253 291.81 1.16121C292.119 0.998856 292.403 0.863054 292.661 0.753798C292.972 0.643522 293.179 0.587362 293.283 0.585318C294.168 0.567949 294.825 0.867618 295.254 1.48432C295.735 2.10001 296.112 2.74377 296.386 3.41562C296.394 3.8322 296.382 4.53571 296.349 5.52612C296.368 6.46344 296.388 7.47887 296.409 8.57241C296.43 9.61387 296.45 10.6293 296.469 11.6187C296.54 12.6071 296.58 13.2835 296.587 13.648C296.592 13.9084 296.603 14.4812 296.621 15.3664C296.689 16.1986 296.759 17.1349 296.832 18.1753C296.903 19.1637 296.948 20.1005 296.965 20.9858C297.035 21.87 297.071 22.4162 297.076 22.6245C297.081 22.8849 297.065 23.4322 297.03 24.2664C297.046 25.0996 297.038 26.0113 297.005 27.0018C297.024 27.9391 297.016 28.8769 296.982 29.8153C296.949 30.7536 296.936 31.4311 296.944 31.8476C296.858 32.787 296.614 33.6253 296.212 34.3625C295.81 35.0997 295.062 35.479 293.968 35.5005C292.823 35.523 292.035 35.2258 291.606 34.6091C291.178 33.9924 290.952 33.1113 290.929 31.9657Z" fill="#E8C457"/><path d="M293.338 38.4041C293.252 39.3434 293.136 40.075 292.99 40.5988C292.896 41.1216 292.697 41.5943 292.393 42.017C292.088 42.4398 291.654 42.8911 291.091 43.371C290.526 43.7988 289.757 44.439 288.784 45.2916C287.81 46.0921 286.607 47.1576 285.174 48.488C283.742 49.8184 282.005 51.5456 279.963 53.6694C279.145 54.4668 278.301 55.2908 277.432 56.1413C276.564 56.9919 275.641 57.7653 274.665 58.4617C273.74 59.105 272.761 59.6451 271.727 60.0821C270.694 60.5192 269.605 60.7489 268.459 60.7714C266.22 60.8153 264.565 60.0924 263.494 58.6028C262.423 57.1131 261.868 55.3788 261.829 53.4C261.803 52.0982 261.808 51.0042 261.843 50.1179C261.929 49.2306 262.115 48.0809 262.4 46.6688C261.817 46.1593 261.314 45.7264 260.89 45.37C260.465 44.9616 260.246 44.4189 260.233 43.742C260.22 43.1171 260.342 42.698 260.599 42.4846C260.907 42.2701 261.243 42.1333 261.607 42.0741C262.021 41.9618 262.41 41.85 262.772 41.7387C263.135 41.6274 263.391 41.414 263.541 41.0985C263.639 40.784 263.81 40.2076 264.054 39.3693C264.35 38.53 264.646 37.6647 264.941 36.7733C265.235 35.8298 265.504 34.965 265.749 34.1788C266.045 33.3395 266.242 32.7626 266.34 32.4481C266.688 31.5557 267.061 30.6628 267.46 29.7694C267.91 28.8229 268.415 27.9795 268.973 27.2392C269.584 26.4979 270.275 25.8853 271.047 25.4013C271.871 24.9163 272.83 24.6631 273.923 24.6416C274.548 24.6294 275.309 24.901 276.205 25.4564C277.154 26.0108 278.053 26.6964 278.902 27.5133C279.751 28.278 280.47 29.0974 281.06 29.9714C281.651 30.8454 281.952 31.5948 281.964 32.2197C281.979 33.0008 281.811 33.7334 281.46 34.4175C281.108 35.0496 280.651 35.6576 280.089 36.2416C279.579 36.7726 279.016 37.2785 278.4 37.7595C277.784 38.2404 277.22 38.6942 276.708 39.121C276.656 39.1221 276.553 39.1762 276.398 39.2834C276.244 39.3906 276.116 39.4713 276.012 39.5254C275.961 39.5785 275.834 39.7112 275.63 39.9236C275.476 40.0829 275.298 40.2687 275.094 40.4811C274.889 40.6935 274.685 40.9058 274.481 41.1182C274.329 41.3296 274.227 41.4618 274.176 41.5149C274.023 41.6742 273.716 41.9407 273.254 42.3144C272.844 42.635 272.382 43.0087 271.87 43.4355C271.356 43.8103 270.868 44.1845 270.407 44.5582C269.997 44.8788 269.714 45.0927 269.56 45.1999L269.26 45.8309C269.16 46.0413 269.065 46.512 268.975 47.243C268.936 47.921 268.873 48.7036 268.787 49.5909C268.7 50.4782 268.614 51.3916 268.528 52.3309C268.493 53.2172 268.481 53.9467 268.493 54.5195C268.494 54.5716 268.521 54.6232 268.574 54.6742C268.68 54.7763 268.759 54.8269 268.811 54.8258C269.228 54.8177 269.615 54.6277 269.972 54.2561C270.329 53.8844 270.715 53.6164 271.128 53.452L283.399 41.6465L286.505 36.6627C286.758 36.2931 287.245 35.8929 287.966 35.462C288.738 34.978 289.515 34.7283 290.296 34.713C291.076 34.6456 291.757 34.8667 292.34 35.3762C292.976 35.8846 293.308 36.8939 293.338 38.4041ZM276.034 32.6486C276.29 32.4352 276.388 32.1208 276.328 31.7052C276.268 31.2896 276.104 30.9282 275.838 30.6208C275.623 30.3125 275.333 30.1359 274.968 30.0909C274.601 29.9939 274.266 30.1828 273.963 30.6576C273.811 30.869 273.533 31.2912 273.128 31.9242C272.776 32.5563 272.398 33.2149 271.995 33.9C271.643 34.532 271.341 35.0849 271.09 35.5587C270.839 36.0324 270.79 36.2157 270.944 36.1085L276.034 32.6486Z" fill="#E8C457"/><path d="M237.287 52.3187C236.892 50.7637 236.856 48.9151 237.178 46.7729C237.553 44.6297 238.136 42.4825 238.927 40.3311C239.77 38.1267 240.797 36.0488 242.009 34.0976C243.273 32.1453 244.597 30.5826 245.98 29.4094C247.416 28.2352 248.861 27.5817 250.317 27.449C251.825 27.2631 253.269 27.8859 254.652 29.3174C254.653 29.3695 254.681 29.4992 254.738 29.7064C254.794 29.9137 254.855 30.3553 254.92 31.0312C254.984 31.6551 255.028 32.5659 255.052 33.7636C255.126 34.9081 255.183 36.4959 255.223 38.5267C255.277 38.6299 255.333 38.8111 255.39 39.0704C255.498 39.2767 255.554 39.4319 255.556 39.536C255.411 40.1119 255.109 40.6648 254.65 41.1947C254.243 41.6716 253.701 41.9166 253.024 41.9299C252.139 41.9473 251.407 41.8314 250.829 41.5823C250.302 41.28 249.898 40.5847 249.616 39.4963C249.717 39.338 249.737 39.0251 249.676 38.5574C249.614 38.0377 249.498 37.467 249.33 36.8451C249.213 36.2223 249.097 35.5995 248.981 34.9766C248.864 34.3538 248.802 33.8601 248.795 33.4956C248.743 33.4966 248.666 33.5502 248.564 33.6564C248.513 33.7095 248.462 33.7626 248.411 33.8157C247.556 35.3953 246.757 37.1561 246.014 39.0981C245.322 40.9871 244.787 42.925 244.409 44.912C244.082 46.8458 243.99 48.7751 244.132 50.6998C244.326 52.6234 244.933 54.3566 245.953 55.8994C246.682 55.8851 247.353 55.5854 247.967 55.0004C248.579 54.3632 249.089 53.7802 249.495 53.2513C250.36 52.1925 251.198 51.1081 252.01 49.9982C252.874 48.8873 253.659 47.7259 254.364 46.5139C254.666 45.987 254.891 45.5138 255.04 45.0941C255.188 44.6745 255.363 44.3324 255.566 44.0679C255.822 43.8025 256.13 43.588 256.491 43.4247C256.853 43.2613 257.398 43.1725 258.127 43.1582C258.96 43.1418 259.746 43.3348 260.483 43.7371C261.219 44.0873 261.596 44.705 261.613 45.5902C261.637 46.7879 261.119 48.3088 260.062 50.1528C259.055 51.9437 257.787 53.6877 256.257 55.3847C254.78 57.0807 253.194 58.5444 251.499 59.7758C249.803 60.9551 248.304 61.5575 247.002 61.5831C245.752 61.6076 244.524 61.3973 243.317 60.9521C242.161 60.4539 241.133 59.7968 240.231 58.981C239.381 58.1642 238.685 57.1881 238.142 56.0527C237.599 54.9173 237.314 53.6726 237.287 52.3187Z" fill="#E8C457"/><path d="M231.57 58.8385C230.947 53.6414 230.417 49.1978 229.98 45.5077C229.543 41.8177 229.17 38.7255 228.861 36.231C228.551 33.7366 228.278 31.7625 228.041 30.3085C227.855 28.8014 227.703 27.6844 227.585 26.9574C227.465 26.1784 227.377 25.6592 227.32 25.3998C227.263 25.1405 227.233 24.9848 227.232 24.9327L227.226 24.6202C227.215 24.0474 227.44 23.5742 227.902 23.2005C228.414 22.7737 228.931 22.5552 229.452 22.5449C230.233 22.5296 231.068 22.6435 231.959 22.8865C232.901 23.1284 233.537 23.6629 233.866 24.49C234.384 27.0324 234.747 29.6039 234.955 32.2045C235.214 34.8041 235.421 37.4047 235.577 40.0063C235.783 42.5548 236.016 45.1289 236.275 47.7284C236.587 50.327 237.08 52.8959 237.755 55.4353C237.757 55.5394 237.787 55.7472 237.845 56.0586C237.955 56.369 238.04 56.706 238.099 57.0695C238.211 57.4319 238.295 57.7689 238.354 58.0803C238.412 58.3917 238.442 58.5995 238.444 58.7036L238.447 58.8599C238.448 58.9119 238.475 58.9635 238.528 59.0145C238.54 59.6394 238.266 60.2699 237.706 60.906C237.145 61.5422 236.551 61.8143 235.925 61.7224C235.767 61.6734 235.375 61.6029 234.748 61.511C234.172 61.3661 233.779 61.2435 233.569 61.1435C233.412 61.0945 233.201 60.9944 232.938 60.8433C232.673 60.6401 232.409 60.4369 232.145 60.2337C231.932 60.0295 231.745 59.7988 231.584 59.5415C231.423 59.2842 231.418 59.0499 231.57 58.8385ZM226.079 1.98215C226.072 1.61764 226.352 1.29958 226.92 1.02797C227.538 0.703274 228.004 0.537858 228.316 0.531728C229.098 0.516403 229.961 0.733875 230.908 1.18414C231.905 1.58132 232.413 2.22253 232.43 3.10778C232.448 3.99302 232.329 4.59442 232.075 4.91197C231.873 5.22849 231.329 5.39544 230.444 5.41281C229.507 5.4312 228.537 5.13766 227.535 4.53219C226.586 3.92571 226.1 3.07569 226.079 1.98215Z" fill="#E8C457"/><path d="M205.555 50.3625L208.051 30.2315C208.142 29.5525 208.419 29.0522 208.882 28.7305C209.396 28.4079 209.966 28.2404 210.591 28.2282C211.736 28.2057 212.654 28.5263 213.345 29.19C214.034 29.8016 214.622 30.5714 215.109 31.4995L215.187 31.498C215.812 31.4858 216.357 31.3709 216.821 31.1534C217.337 30.8828 217.959 30.7404 218.688 30.7261C220.355 30.6934 221.771 31.1865 222.937 32.2055C224.155 33.2235 225.143 34.4804 225.902 35.9762C226.66 37.4199 227.211 38.998 227.558 40.7102C227.956 42.4215 228.168 43.9281 228.193 45.2299C228.224 46.7921 227.842 48.5447 227.046 50.4878C226.303 52.4298 225.271 54.2733 223.951 56.0183C222.683 57.7623 221.227 59.2234 219.583 60.4017C217.939 61.58 216.258 62.186 214.54 62.2198C212.977 62.2504 211.616 61.9125 210.456 61.2059C209.349 60.4983 208.419 59.6049 207.669 58.5257C206.969 57.3934 206.45 56.1273 206.11 54.7274C205.77 53.3276 205.586 51.9507 205.56 50.5968L205.555 50.3625ZM212.126 50.7024C212.24 51.2211 212.356 51.8179 212.473 52.4928C212.591 53.1677 212.759 53.7895 212.979 54.3582C213.197 54.8749 213.492 55.2858 213.863 55.5911C214.284 55.8433 214.857 55.8321 215.581 55.5574C216.246 54.9193 216.961 54.202 217.727 53.4055C218.492 52.6091 219.205 51.7616 219.865 50.8631C220.576 49.9636 221.157 49.0145 221.606 48.0159C222.055 47.0173 222.269 45.9712 222.248 44.8777C222.421 43.1031 222.259 41.4914 221.762 40.0426C221.264 38.5416 220.566 37.4874 219.668 36.8799C218.822 36.2193 217.857 36.1601 216.774 36.7023C215.689 37.1924 214.622 38.5417 213.571 40.7502C212.973 42.1164 212.562 43.7133 212.337 45.541C212.163 47.3156 212.091 48.9579 212.121 50.4681L212.126 50.7024Z" fill="#E8C457"/><path d="M179.67 24.6153C179.713 21.4888 179.521 18.367 179.096 15.2498C178.67 12.1325 178.427 9.03772 178.367 5.9654C178.347 4.97601 178.622 4.37154 179.19 4.15201C179.758 3.88041 180.407 3.73745 181.136 3.72315C182.177 3.70272 183.042 3.97226 183.73 4.53178C184.418 5.09131 184.825 5.89078 184.949 6.93021C185.529 12.597 185.9 18.2158 186.061 23.7866C186.274 29.3044 186.774 34.8946 187.562 40.5573C189.066 37.5585 190.633 35.0793 192.261 33.1199C193.89 31.1605 195.453 29.8536 196.951 29.1991C198.501 28.5435 199.909 28.6461 201.176 29.5069C202.495 30.3145 203.569 31.9864 204.4 34.5227C205.231 37.0069 205.767 40.4345 206.009 44.8056C206.25 49.1246 206.095 54.5193 205.545 60.9897C205.18 60.9969 204.738 61.0316 204.219 61.0939C203.698 61.1041 203.177 61.0883 202.655 61.0464C202.185 61.0035 201.767 60.9076 201.399 60.7585C201.031 60.6094 200.817 60.3271 200.757 59.9116C201.097 55.9979 201.267 52.7127 201.267 50.0559C201.267 47.3991 201.146 45.2136 200.904 43.4993C200.662 41.7849 200.35 40.4887 199.968 39.6106C199.585 38.6805 199.181 38.0112 198.757 37.6028C198.332 37.1943 197.911 36.9942 197.495 37.0024C197.129 36.9575 196.843 36.9631 196.635 37.0193C195.498 37.4583 194.424 38.4952 193.415 40.1299C192.457 41.7636 191.634 43.6551 190.947 45.8044C190.26 47.9537 189.758 50.2296 189.44 52.6322C189.174 54.9816 189.137 57.0921 189.33 58.9637C189.286 59.3813 189.242 59.7989 189.198 60.2165C189.155 60.6341 189.058 61.0267 188.909 61.3943C188.812 61.7608 188.61 62.0773 188.303 62.3438C188.046 62.5572 187.632 62.6696 187.059 62.6808C185.965 62.7023 185.077 62.5374 184.392 62.1861C183.759 61.7818 183.254 61.2708 182.878 60.6531C182.553 60.0343 182.33 59.3094 182.21 58.4782C182.141 57.6461 182.151 56.7864 182.237 55.8991L179.67 24.6153Z" fill="#E8C457"/><path d="M155.412 53.9252C155.017 52.3701 154.981 50.5215 155.304 48.3794C155.678 46.2362 156.261 44.0889 157.053 41.9376C157.895 39.7331 158.922 37.6553 160.134 35.704C161.398 33.7518 162.722 32.1891 164.105 31.0159C165.541 29.8416 166.987 29.1882 168.443 29.0554C169.95 28.8696 171.394 29.4924 172.777 30.9239C172.778 30.9759 172.807 31.1056 172.863 31.3129C172.919 31.5202 172.98 31.9618 173.045 32.6377C173.109 33.2615 173.153 34.1723 173.177 35.37C173.251 36.5146 173.309 38.1023 173.348 40.1332C173.402 40.2363 173.458 40.4175 173.515 40.6769C173.624 40.8831 173.679 41.0383 173.681 41.1425C173.536 41.7184 173.234 42.2713 172.776 42.8012C172.368 43.278 171.826 43.5231 171.149 43.5364C170.264 43.5537 169.532 43.4378 168.954 43.1887C168.427 42.8865 168.023 42.1912 167.741 41.1027C167.842 40.9445 167.862 40.6315 167.801 40.1639C167.739 39.6442 167.623 39.0734 167.455 38.4516C167.338 37.8288 167.222 37.2059 167.106 36.5831C166.989 35.9602 166.927 35.4666 166.92 35.1021C166.868 35.1031 166.791 35.1567 166.689 35.2629C166.638 35.316 166.587 35.3691 166.536 35.4222C165.681 37.0017 164.882 38.7625 164.139 40.7046C163.447 42.5935 162.912 44.5315 162.534 46.5184C162.207 48.4523 162.115 50.3816 162.257 52.3062C162.451 54.2299 163.058 55.9631 164.078 57.5059C164.807 57.4916 165.478 57.1919 166.092 56.6068C166.705 55.9697 167.214 55.3867 167.62 54.8578C168.485 53.7989 169.324 52.7146 170.135 51.6047C170.999 50.4938 171.784 49.3323 172.489 48.1203C172.791 47.5935 173.017 47.1202 173.165 46.7005C173.313 46.2809 173.488 45.9388 173.692 45.6744C173.947 45.4089 174.255 45.1945 174.617 45.0311C174.978 44.8677 175.523 44.7789 176.252 44.7646C177.085 44.7483 177.871 44.9412 178.608 45.3435C179.344 45.6937 179.721 46.3114 179.738 47.1967C179.762 48.3944 179.245 49.9152 178.187 51.7593C177.18 53.5502 175.912 55.2941 174.382 56.9911C172.905 58.6871 171.319 60.1508 169.624 61.3822C167.928 62.5615 166.429 63.164 165.127 63.1895C163.877 63.214 162.649 63.0037 161.442 62.5586C160.286 62.0603 159.258 61.4033 158.356 60.5875C157.507 59.7706 156.81 58.7945 156.267 57.6591C155.724 56.5237 155.439 55.2791 155.412 53.9252Z" fill="#E8C457"/><path d="M104.174 41.4904C103.445 41.5048 102.798 41.6998 102.232 42.0755C101.666 42.4513 100.993 42.6468 100.212 42.6621C100.108 42.6642 99.8214 42.6698 99.3528 42.679C98.9352 42.6351 98.6743 42.6142 98.5702 42.6162C98.3568 42.3599 98.1183 42.1562 97.8549 42.0051C97.5915 41.854 97.328 41.7029 97.0646 41.5518C96.8002 41.3486 96.5612 41.1189 96.3478 40.8626C96.1865 40.6053 96.1012 40.2423 96.092 39.7737C96.0767 38.9926 96.3769 38.3615 96.9926 37.8806C97.6072 37.3476 98.3276 36.8907 99.1536 36.5098C99.9796 36.129 100.806 35.7742 101.633 35.4454C102.512 35.1156 103.208 34.7373 103.721 34.3105L103.653 30.8736C103.578 27.0202 103.32 23.1703 102.88 19.3241C102.439 15.4257 102.181 11.5759 102.106 7.77453C102.086 6.73306 102.333 6.051 102.847 5.72834C103.362 5.40569 104.062 5.23567 104.947 5.2183C105.989 5.19787 106.75 5.4955 107.231 6.11118C107.763 6.67377 108.142 7.39564 108.367 8.2768C108.592 9.10589 108.714 10.0151 108.733 11.0045C108.752 11.9418 108.794 12.7485 108.859 13.4244C108.872 14.1014 108.948 15.298 109.086 17.0144C109.223 18.7308 109.363 20.5513 109.505 22.476C109.647 24.4006 109.787 26.2212 109.925 27.9375C110.063 29.6539 110.164 30.8501 110.23 31.526C110.437 31.4698 110.825 31.332 111.394 31.1125C112.014 30.8398 112.66 30.5927 113.333 30.3711C114.005 30.0975 114.625 29.8509 115.194 29.6314C115.814 29.4108 116.254 29.2459 116.512 29.1367C117.855 28.5373 119.249 27.8848 120.693 27.1793C122.137 26.4216 123.614 26.028 125.124 25.9984C126.166 25.9779 126.954 26.3271 127.489 27.0459C128.075 27.7117 128.377 28.5132 128.396 29.4505C128.409 30.1274 128.158 30.6272 127.644 30.9499C127.129 31.2726 126.588 31.5697 126.02 31.8413L111.909 37.4317C111.754 37.5389 111.6 37.6461 111.446 37.7533C111.291 37.8085 111.137 37.9157 110.983 38.075L111.033 40.5745C111.068 42.397 111.132 44.2972 111.222 46.275C111.364 48.1996 111.583 50.0707 111.88 51.8882C112.171 53.4453 112.487 54.9758 112.829 56.4798C113.171 57.9838 113.358 59.5169 113.388 61.0791C113.398 61.5478 113.254 62.1757 112.956 62.9629C112.659 63.7502 112.172 64.1504 111.495 64.1637C110.089 64.1913 108.936 63.7972 108.034 62.9814C107.132 62.1656 106.616 61.0557 106.484 59.6518C106.17 56.9491 105.826 53.9865 105.45 50.7641C105.126 47.5406 104.805 44.4474 104.487 41.4843L104.174 41.4904Z" fill="#E8C457"/><path d="M80.6774 61.7989C80.6723 61.5385 80.6677 61.3042 80.6636 61.0959C80.7116 60.8866 80.8377 60.6758 81.0419 60.4634C81.6514 59.67 82.3386 58.8491 83.1034 58.0006C83.8671 57.1 84.6053 56.226 85.318 55.3785C86.0296 54.479 86.6887 53.5544 87.2952 52.6048C87.9017 51.6552 88.404 50.7077 88.8022 49.7622L88.793 49.2936L78.602 51.6033L77.4303 51.6263C76.7013 51.6406 75.789 51.6064 74.6934 51.5237C73.6499 51.44 72.6044 51.2521 71.5568 50.9601C70.5602 50.615 69.6913 50.1372 68.95 49.5266C68.2608 48.915 67.906 48.0885 67.8856 47.047C67.9141 45.8483 68.513 44.5082 69.682 43.0266C70.8511 41.5451 72.229 40.0855 73.8157 38.6478C75.4024 37.2102 76.9911 35.8766 78.5819 34.6473C80.2247 33.4169 81.5342 32.4535 82.5103 31.7572C83.5916 31.1108 84.8837 30.5906 86.3867 30.1965C87.8886 29.7502 89.2645 29.5149 90.5143 29.4904C91.5557 29.4699 92.4711 29.6603 93.2604 30.0616C94.0486 30.4108 94.454 31.1582 94.4765 32.3038C94.4857 32.7725 94.4423 33.2161 94.3463 33.6347C94.3024 34.0523 93.9956 34.3449 93.4258 34.5123C91.7564 34.3888 90.1968 34.5496 88.7469 34.9948C87.296 35.388 85.9273 35.9878 84.6408 36.7945C83.3543 37.6011 82.1489 38.5624 81.0248 39.6785C79.8996 40.7424 78.8015 41.8579 77.7304 43.025C77.4251 43.3956 77.0448 43.924 76.5894 44.6102C76.133 45.2442 75.9058 45.6134 75.9079 45.7175L75.9094 45.7956C77.2633 45.769 78.5886 45.6128 79.8854 45.3269C81.2342 45.04 82.5569 44.7536 83.8537 44.4676C85.2014 44.1286 86.5237 43.8162 87.8204 43.5303C89.1692 43.2433 90.5466 43.0861 91.9526 43.0585C92.4733 43.0483 93.0471 43.0891 93.6741 43.181C94.3 43.2208 94.8758 43.3658 95.4017 43.6159C95.9796 43.8651 96.4294 44.2209 96.751 44.6834C97.1237 45.0929 97.3167 45.6361 97.3299 46.313C97.3494 47.3024 97.1079 48.2709 96.6056 49.2184C96.1543 50.1128 95.4467 51.2207 94.4828 52.5419C93.57 53.8101 92.3765 55.3703 90.9021 57.2225C89.4798 59.0736 87.7813 61.4512 85.8066 64.355C85.7056 64.5133 85.4472 64.6226 85.0317 64.6828C84.6682 64.742 84.3563 64.7742 84.0959 64.7793C83.3669 64.7936 82.6057 64.496 81.8123 63.8864C81.071 63.2758 80.6927 62.58 80.6774 61.7989Z" fill="#E8C457"/><path d="M70.396 42.7781C70.3102 43.7174 70.1944 44.449 70.0484 44.9728C69.9544 45.4956 69.7553 45.9683 69.4511 46.3911C69.1468 46.8138 68.7129 47.2651 68.1493 47.745C67.5846 48.1728 66.8158 48.813 65.8427 49.6656C64.8687 50.4661 63.6654 51.5316 62.2329 52.862C60.8004 54.1925 59.0631 55.9196 57.021 58.0434C56.2032 58.8408 55.3598 59.6648 54.4909 60.5154C53.622 61.3659 52.6995 62.1394 51.7234 62.8357C50.7983 63.479 49.8191 64.0191 48.7858 64.4562C47.7525 64.8932 46.6631 65.1229 45.5175 65.1454C43.2783 65.1893 41.6232 64.4665 40.5521 62.9768C39.481 61.4871 38.9261 59.7528 38.8872 57.7741C38.8617 56.4722 38.8663 55.3782 38.901 54.4919C38.9878 53.6046 39.1736 52.4549 39.4584 51.0428C38.8754 50.5333 38.372 50.1004 37.9483 49.7441C37.5235 49.3356 37.3045 48.793 37.2912 48.116C37.279 47.4911 37.401 47.072 37.6572 46.8586C37.9656 46.6442 38.3015 46.5073 38.665 46.4481C39.0796 46.3358 39.4681 46.224 39.8305 46.1127C40.193 46.0014 40.4493 45.788 40.5994 45.4725C40.6974 45.158 40.8684 44.5816 41.1124 43.7433C41.4085 42.904 41.7041 42.0387 41.9992 41.1473C42.2932 40.2039 42.5628 39.339 42.8078 38.5528C43.1039 37.7135 43.301 37.1366 43.399 36.8221C43.7461 35.9297 44.1193 35.0368 44.5185 34.1434C44.9688 33.1969 45.4732 32.3535 46.0317 31.6132C46.6422 30.872 47.3335 30.2593 48.1054 29.7753C48.9294 29.2903 49.8881 29.0371 50.9817 29.0156C51.6065 29.0034 52.3672 29.275 53.2637 29.8304C54.2123 30.3848 55.1113 31.0704 55.9608 31.8873C56.8093 32.652 57.5287 33.4714 58.1188 34.3454C58.709 35.2194 59.0102 35.9689 59.0225 36.5937C59.0378 37.3748 58.8699 38.1074 58.5186 38.7916C58.1664 39.4236 57.7095 40.0316 57.1479 40.6157C56.6374 41.1466 56.0743 41.6526 55.4586 42.1335C54.8429 42.6144 54.2788 43.0683 53.7662 43.4951C53.7142 43.4961 53.611 43.5502 53.4569 43.6574C53.3027 43.7646 53.174 43.8453 53.0709 43.8994C53.0199 43.9525 52.8922 44.0852 52.688 44.2976C52.5349 44.4569 52.3562 44.6427 52.152 44.8551C51.9478 45.0675 51.7436 45.2799 51.5394 45.4923C51.3872 45.7036 51.2856 45.8358 51.2346 45.8889C51.0814 46.0482 50.7741 46.3147 50.3126 46.6884C49.9021 47.009 49.4406 47.3827 48.9281 47.8095C48.4145 48.1843 47.9269 48.5585 47.4654 48.9322C47.055 49.2528 46.7727 49.4667 46.6185 49.5739L46.3183 50.205C46.2182 50.4153 46.1233 50.886 46.0335 51.6171C45.9947 52.295 45.9319 53.0777 45.8451 53.965C45.7583 54.8522 45.6721 55.7656 45.5863 56.7049C45.5516 57.5912 45.5399 58.3207 45.5511 58.8936C45.5521 58.9456 45.5792 58.9972 45.6323 59.0482C45.7385 59.1503 45.8176 59.2009 45.8697 59.1999C46.2863 59.1917 46.6732 59.0018 47.0306 58.6301C47.388 58.2584 47.7734 57.9904 48.1869 57.826L60.4577 46.0205L63.5637 41.0368C63.8169 40.6671 64.3039 40.2669 65.0248 39.836C65.7967 39.352 66.5732 39.1024 67.3543 39.087C68.1343 39.0196 68.8159 39.2407 69.3989 39.7502C70.034 40.2587 70.3664 41.268 70.396 42.7781ZM53.0923 37.0227C53.3485 36.8093 53.4466 36.4948 53.3863 36.0792C53.3261 35.6636 53.1627 35.3022 52.8962 34.9949C52.6818 34.6865 52.3918 34.5099 52.0263 34.465C51.6597 34.368 51.3248 34.5569 51.0216 35.0316C50.8694 35.243 50.5912 35.6652 50.1869 36.2983C49.8346 36.9303 49.4568 37.5889 49.0535 38.274C48.7013 38.906 48.3996 39.4589 48.1484 39.9327C47.8972 40.4065 47.8487 40.5897 48.0029 40.4825L53.0923 37.0227Z" fill="#E8C457"/><path d="M6.71994 50.3568C6.57288 48.1718 6.39775 45.8831 6.19453 43.4908C6.04338 41.0975 5.81566 38.7838 5.51136 36.5498C5.30307 36.5539 4.96459 36.5605 4.49593 36.5697C4.02625 36.5268 3.55555 36.4319 3.08382 36.2848C2.6121 36.1378 2.19194 35.9637 1.82334 35.7626C1.45371 35.5094 1.26533 35.2005 1.25817 34.836C1.24694 34.2632 1.36588 33.6878 1.61501 33.1099C1.91519 32.4789 2.26846 31.8989 2.67483 31.37C3.08018 30.7891 3.48706 30.2862 3.89547 29.8614C4.35494 29.3836 4.73783 28.9854 5.04414 28.6668L4.81119 16.7941C4.79791 16.1171 5.12668 15.6158 5.7975 15.2901C6.4673 14.9123 7.08861 14.7178 7.66141 14.7065C9.11946 14.6779 10.0634 14.998 10.4933 15.6668C10.9232 16.3356 11.1728 17.1121 11.2423 17.9963C11.3107 18.8284 11.3265 19.6356 11.2898 20.4177C11.3051 21.1988 11.6012 21.6879 12.1781 21.8849C13.1062 21.3979 13.9818 20.8858 14.8047 20.3487C15.6277 19.8116 16.4256 19.3271 17.1985 18.8952C18.0235 18.4623 18.8501 18.1075 19.6781 17.8308C20.5583 17.553 21.493 17.4045 22.4824 17.385C22.9511 17.3758 23.4468 17.4182 23.9696 17.5121C24.5444 17.6051 25.0687 17.7771 25.5425 18.0283C26.0153 18.2274 26.4119 18.5321 26.7326 18.9426C27.0521 19.301 27.2181 19.7926 27.2303 20.4175C27.2528 21.5631 27.1175 22.6337 26.8245 23.6292C26.5305 24.5726 26.1583 25.5176 25.708 26.4641C25.2567 27.3586 24.7794 28.2535 24.276 29.149C23.7727 30.0445 23.3219 30.9649 22.9237 31.9104C23.132 31.9063 23.5236 31.9508 24.0984 32.0437C24.6722 32.0845 25.2721 32.1248 25.898 32.1646C26.5239 32.2044 27.1243 32.2708 27.6991 32.3637C28.273 32.4046 28.664 32.4229 28.8723 32.4188C29.7086 32.5587 30.677 32.8002 31.7777 33.1432C32.9305 33.4853 33.9817 33.9595 34.9312 34.566C35.9329 35.1715 36.7809 35.9102 37.4752 36.7822C38.1685 37.6021 38.5259 38.5588 38.5473 39.6523C38.5708 40.85 38.36 42.0523 37.9148 43.2592C37.5217 44.465 37.022 45.5427 36.4155 46.4923C36.2133 46.8089 35.9096 47.2576 35.5042 47.8386C35.0989 48.4196 34.6935 49.0005 34.2882 49.5815C33.8828 50.1625 33.5025 50.6909 33.1472 51.1667C32.8429 51.5894 32.6652 51.8273 32.6142 51.8804L17.9481 65.0613C17.4355 65.4881 16.9985 65.7832 16.637 65.9466C16.2746 66.0579 15.833 66.1186 15.3122 66.1288C14.9477 66.136 14.4004 66.1207 13.6704 66.0829C12.9914 65.992 12.2859 65.8756 11.5538 65.7337C10.8217 65.5918 10.1667 65.3963 9.58875 65.1472C9.06291 64.897 8.76987 64.5642 8.70962 64.1486L6.7322 50.9817L6.71994 50.3568ZM14.551 59.1893L14.6291 59.1878C14.8894 59.1827 15.2785 59.0969 15.7961 58.9304C16.3138 58.764 16.6492 58.6012 16.8024 58.4419C17.0076 58.2816 17.3404 57.9885 17.8009 57.5627C18.3135 57.1359 18.8516 56.6826 19.4152 56.2027C19.9788 55.7228 20.4908 55.2699 20.9513 54.8442C21.4639 54.4174 21.8488 54.1233 22.1061 53.962C22.9771 53.2156 24.0012 52.3099 25.1784 51.2449C26.4077 50.1789 27.5579 49.0624 28.629 47.8953C29.699 46.6762 30.5863 45.4346 31.2908 44.1705C32.0474 42.9054 32.4139 41.6741 32.3904 40.4764C32.3751 39.6953 32.103 39.1015 31.5741 38.6952C31.0442 38.2367 30.3861 37.885 29.5999 37.6399C28.8657 37.3939 28.0816 37.253 27.2474 37.2173C26.4642 37.1284 25.7863 37.0896 25.2135 37.1009C24.1199 37.1223 23.1081 37.3245 22.1779 37.7074C21.2477 38.0903 20.3717 38.5764 19.5497 39.1655C18.7278 39.7547 17.9335 40.4214 17.1667 41.1658C16.4509 41.857 15.7091 42.5488 14.9413 43.2411C14.7882 43.4004 14.5569 43.5612 14.2475 43.7235C13.9902 43.8849 13.7334 44.0722 13.4771 44.2856C13.2209 44.499 12.9906 44.7119 12.7864 44.9243C12.6343 45.1357 12.5868 45.371 12.644 45.6303L14.551 59.1893ZM19.7931 23.689C19.69 23.7431 19.5097 23.8508 19.2524 24.0122C18.9951 24.1735 18.7383 24.3609 18.4821 24.5743C18.2258 24.7877 17.969 24.975 17.7117 25.1364C17.4544 25.2977 17.2742 25.4054 17.1711 25.4595C17.1711 25.4595 16.8887 25.6734 16.3241 26.1013C15.8115 26.5281 15.2219 27.0085 14.5552 27.5425C13.9405 28.0755 13.3514 28.5819 12.7877 29.0618C12.2752 29.4886 12.0194 29.7281 12.0204 29.7802L12.1384 35.7946L12.4509 35.7885C12.4509 35.7885 12.6035 35.6032 12.9088 35.2325C13.2141 34.8619 13.5704 34.4381 13.9778 33.9613C14.4363 33.4314 14.8687 32.902 15.2751 32.3731C15.6814 31.8442 16.0117 31.4209 16.266 31.1034C16.4171 30.8399 16.6953 30.4177 17.1007 29.8368C17.5581 29.2548 17.8373 28.8846 17.9384 28.7264C18.0885 28.4109 18.2891 28.0162 18.5403 27.5425C18.7915 27.0687 19.0171 26.6215 19.2172 26.2008C19.4684 25.727 19.669 25.3324 19.8191 25.0169C20.0203 24.6483 20.1208 24.464 20.1208 24.464L20.1055 23.6829L19.7931 23.689Z" fill="#E8C457"/></svg>