<svg width="131" height="122" fill="none" xmlns="http://www.w3.org/2000/svg"><path d="M62.1244 56.5679H42.005V110.287H62.1244V56.5679Z" stroke="#E8C457" stroke-width="5.02986" stroke-linejoin="round"/><path d="M119.129 55.0254H99.01V110.354H119.129V55.0254Z" stroke="#E8C457" stroke-width="5.02986" stroke-linejoin="round"/><path d="M128.384 110.354H2.63806V118.737H128.384V110.354Z" stroke="#919191" stroke-width="5.02986" stroke-linejoin="round"/><path d="M33.622 75.5474H13.5026V110.354H33.622V75.5474Z" stroke="#919191" stroke-width="5.02986" stroke-linejoin="round"/><path d="M90.627 77.0898H70.5076V110.287H90.627V77.0898Z" stroke="#919191" stroke-width="5.02986" stroke-linejoin="round"/><path d="M23.5623 49.9954C29.1181 49.9954 33.622 45.4915 33.622 39.9357C33.622 34.3799 29.1181 29.876 23.5623 29.876C18.0064 29.876 13.5026 34.3799 13.5026 39.9357C13.5026 45.4915 18.0064 49.9954 23.5623 49.9954Z" stroke="#919191" stroke-width="5.02986" stroke-linejoin="round"/><path d="M80.5673 53.3489C86.1231 53.3489 90.627 48.845 90.627 43.2892C90.627 37.7334 86.1231 33.2295 80.5673 33.2295C75.0115 33.2295 70.5076 37.7334 70.5076 43.2892C70.5076 48.845 75.0115 53.3489 80.5673 53.3489Z" stroke="#919191" stroke-width="5.02986" stroke-linejoin="round"/><path d="M30.2687 33.2294L45.3582 19.8164" stroke="#919191" stroke-width="5.02986" stroke-linejoin="round"/><path d="M58.7712 19.8164L73.8608 36.5826" stroke="#919191" stroke-width="5.02986" stroke-linejoin="round"/><path d="M87.2737 36.5827L102.363 21.4932" stroke="#919191" stroke-width="5.02986" stroke-linejoin="round"/><path d="M52.0647 23.1697C57.6205 23.1697 62.1244 18.6658 62.1244 13.11C62.1244 7.55418 57.6205 3.05029 52.0647 3.05029C46.5089 3.05029 42.005 7.55418 42.005 13.11C42.005 18.6658 46.5089 23.1697 52.0647 23.1697Z" stroke="#E8C457" stroke-width="5.02986" stroke-linejoin="round"/><path d="M109.07 24.846C114.626 24.846 119.129 20.3421 119.129 14.7863C119.129 9.23045 114.626 4.72656 109.07 4.72656C103.514 4.72656 99.01 9.23045 99.01 14.7863C99.01 20.3421 103.514 24.846 109.07 24.846Z" stroke="#E8C457" stroke-width="5.02986" stroke-linejoin="round"/></svg>