<svg width="134" height="123" fill="none" xmlns="http://www.w3.org/2000/svg"><path d="M37.4448 74.0182H19.2032C14.844 73.7453 10.7527 71.8213 7.76229 68.6378C4.77186 65.4544 3.10718 61.2508 3.10718 56.8831C3.10718 52.5154 4.77186 48.3119 7.76229 45.1284C10.7527 41.945 14.844 40.0209 19.2032 39.7481H20.4775C20.4111 38.9223 20.4111 38.0925 20.4775 37.2667C20.4856 34.341 21.2413 31.4659 22.6728 28.9144C24.1043 26.3628 26.1642 24.2193 28.6568 22.6875C31.1494 21.1556 33.9921 20.2862 36.9152 20.1617C39.8382 20.0371 42.7446 20.6616 45.3585 21.9759C48.6883 14.848 54.4696 9.15472 61.6476 5.93454C68.8257 2.71436 76.9222 2.18193 84.4602 4.43437C91.9981 6.68681 98.4752 11.574 102.71 18.2044C106.944 24.8349 108.654 32.7667 107.528 40.5529C109.109 40.0353 110.76 39.7638 112.423 39.7481C114.764 39.6016 117.109 39.9361 119.315 40.7309C121.521 41.5258 123.541 42.7642 125.25 44.3697C126.96 45.9752 128.322 47.9138 129.253 50.0659C130.184 52.2181 130.664 54.5382 130.664 56.8831C130.664 59.2281 130.184 61.5482 129.253 63.7003C128.322 65.8525 126.96 67.7911 125.25 69.3966C123.541 71.0021 121.521 72.2404 119.315 73.0353C117.109 73.8302 114.764 74.1646 112.423 74.0182H82.4453" stroke="#919191" stroke-width="5.02986" stroke-miterlimit="10"/><path d="M63.332 48.1304H81.5066" stroke="#919191" stroke-width="5.02986" stroke-miterlimit="10"/><path d="M40.9994 52.8262L48.0411 63.5565V91.2543H2.10181" stroke="#919191" stroke-width="5.02986" stroke-miterlimit="10"/><path d="M58.3688 53.0947V102.723H34.4938" stroke="#919191" stroke-width="5.02986" stroke-miterlimit="10"/><path d="M13.5026 102.722H24.3" stroke="#919191" stroke-width="5.02986" stroke-miterlimit="10"/><path d="M77.684 102.722H111.35" stroke="#919191" stroke-width="5.02986" stroke-miterlimit="10"/><path d="M121.276 102.722H129.525" stroke="#919191" stroke-width="5.02986" stroke-miterlimit="10"/><path d="M129.525 91.2539H100.083" stroke="#919191" stroke-width="5.02986" stroke-miterlimit="10"/><path d="M90.4259 91.2521H72.2513V67.7124" stroke="#919191" stroke-width="5.02986" stroke-miterlimit="10"/><path d="M2.10181 114.727H31.0738" stroke="#919191" stroke-width="5.02986" stroke-miterlimit="10"/><path d="M40.9998 114.727H129.525" stroke="#919191" stroke-width="5.02986" stroke-miterlimit="10"/><path d="M39.4566 53.0945C42.1974 53.0945 44.4194 50.8726 44.4194 48.1317C44.4194 45.3909 42.1974 43.1689 39.4566 43.1689C36.7157 43.1689 34.4938 45.3909 34.4938 48.1317C34.4938 50.8726 36.7157 53.0945 39.4566 53.0945Z" stroke="#E8C457" stroke-width="5.02986" stroke-miterlimit="10"/><path d="M58.3693 53.0945C61.1102 53.0945 63.3321 50.8726 63.3321 48.1317C63.3321 45.3909 61.1102 43.1689 58.3693 43.1689C55.6284 43.1689 53.4065 45.3909 53.4065 48.1317C53.4065 50.8726 55.6284 53.0945 58.3693 53.0945Z" stroke="#E8C457" stroke-width="5.02986" stroke-miterlimit="10"/><path d="M72.2514 35.8572C74.9922 35.8572 77.2142 33.6353 77.2142 30.8944C77.2142 28.1536 74.9922 25.9316 72.2514 25.9316C69.5105 25.9316 67.2886 28.1536 67.2886 30.8944C67.2886 33.6353 69.5105 35.8572 72.2514 35.8572Z" stroke="#E8C457" stroke-width="5.02986" stroke-miterlimit="10"/><path d="M86.469 53.0945C89.2099 53.0945 91.4318 50.8726 91.4318 48.1317C91.4318 45.3909 89.2099 43.1689 86.469 43.1689C83.7281 43.1689 81.5062 45.3909 81.5062 48.1317C81.5062 50.8726 83.7281 53.0945 86.469 53.0945Z" stroke="#E8C457" stroke-width="5.02986" stroke-miterlimit="10"/><path d="M72.2514 67.7127C74.9922 67.7127 77.2142 65.4908 77.2142 62.7499C77.2142 60.009 74.9922 57.7871 72.2514 57.7871C69.5105 57.7871 67.2886 60.009 67.2886 62.7499C67.2886 65.4908 69.5105 67.7127 72.2514 67.7127Z" stroke="#E8C457" stroke-width="5.02986" stroke-miterlimit="10"/><path d="M8.53982 107.683C11.2807 107.683 13.5026 105.461 13.5026 102.72C13.5026 99.9792 11.2807 97.7573 8.53982 97.7573C5.79894 97.7573 3.57703 99.9792 3.57703 102.72C3.57703 105.461 5.79894 107.683 8.53982 107.683Z" stroke="#E8C457" stroke-width="5.02986" stroke-miterlimit="10"/><path d="M36.0363 119.688C38.7772 119.688 40.9991 117.466 40.9991 114.725C40.9991 111.984 38.7772 109.762 36.0363 109.762C33.2954 109.762 31.0735 111.984 31.0735 114.725C31.0735 117.466 33.2954 119.688 36.0363 119.688Z" stroke="#E8C457" stroke-width="5.02986" stroke-miterlimit="10"/><path d="M72.7212 107.683C75.4621 107.683 77.684 105.461 77.684 102.72C77.684 99.9792 75.4621 97.7573 72.7212 97.7573C69.9803 97.7573 67.7584 99.9792 67.7584 102.72C67.7584 105.461 69.9803 107.683 72.7212 107.683Z" stroke="#E8C457" stroke-width="5.02986" stroke-miterlimit="10"/><path d="M116.313 107.683C119.054 107.683 121.276 105.461 121.276 102.72C121.276 99.9792 119.054 97.7573 116.313 97.7573C113.573 97.7573 111.351 99.9792 111.351 102.72C111.351 105.461 113.573 107.683 116.313 107.683Z" stroke="#E8C457" stroke-width="5.02986" stroke-miterlimit="10"/></svg>