<svg width="454" height="577" fill="none" xmlns="http://www.w3.org/2000/svg"><mask id="mask0_155_499" style="mask-type:alpha" maskUnits="userSpaceOnUse" x="0" y="0" width="454" height="577"><rect width="454" height="577" fill="#D9D9D9"/></mask><g mask="url(#mask0_155_499)"><g filter="url(#filter0_d_155_499)"><rect x="47" y="-79" width="160" height="224" rx="80" fill="white" shape-rendering="crispEdges"/><path fill-rule="evenodd" clip-rule="evenodd" d="M139 11C139 12.3062 138.165 13.4175 137 13.8293V21C137 21.5523 136.552 22 136 22C135.448 22 135 21.5523 135 21V13.8293C133.835 13.4175 133 12.3062 133 11C133 9.34315 134.343 8 136 8C137.657 8 139 9.34315 139 11ZM136 12C136.552 12 137 11.5523 137 11C137 10.4477 136.552 10 136 10C135.448 10 135 10.4477 135 11C135 11.5523 135.448 12 136 12Z" fill="#949494"/><path fill-rule="evenodd" clip-rule="evenodd" d="M127 18C127.552 18 128 17.5523 128 17V13.8293C129.165 13.4175 130 12.3062 130 11C130 9.34315 128.657 8 127 8C125.343 8 124 9.34315 124 11C124 12.3062 124.835 13.4175 126 13.8293V16H112V13.8293C113.165 13.4175 114 12.3062 114 11C114 9.34315 112.657 8 111 8C109.343 8 108 9.34315 108 11C108 12.3062 108.835 13.4175 110 13.8293V17C110 17.2652 110.105 17.5196 110.293 17.7071C110.48 17.8946 110.735 18 111 18H118V21C118 21.5523 118.448 22 119 22C119.552 22 120 21.5523 120 21V18H127ZM111 12C110.448 12 110 11.5523 110 11C110 10.4477 110.448 10 111 10C111.552 10 112 10.4477 112 11C112 11.5523 111.552 12 111 12ZM127 12C127.552 12 128 11.5523 128 11C128 10.4477 127.552 10 127 10C126.448 10 126 10.4477 126 11C126 11.5523 126.448 12 127 12Z" fill="#949494"/><path fill-rule="evenodd" clip-rule="evenodd" d="M104.829 28C104.417 29.1652 103.306 30 102 30C100.343 30 99 28.6569 99 27C99 25.3431 100.343 24 102 24C103.306 24 104.417 24.8348 104.829 26L112 26C112.552 26 113 26.4477 113 27C113 27.5523 112.552 28 112 28L104.829 28ZM102 26C102.552 26 103 26.4477 103 27C103 27.5523 102.552 28 102 28C101.448 28 101 27.5523 101 27C101 26.4477 101.448 26 102 26Z" fill="#949494"/><path fill-rule="evenodd" clip-rule="evenodd" d="M121 61C121 59.6938 120.165 58.5825 119 58.1707L119 51C119 50.4477 118.552 50 118 50C117.448 50 117 50.4477 117 51L117 58.1707C115.835 58.5825 115 59.6938 115 61C115 62.6569 116.343 64 118 64C119.657 64 121 62.6569 121 61ZM118 60C117.448 60 117 60.4477 117 61C117 61.5523 117.448 62 118 62C118.552 62 119 61.5523 119 61C119 60.4477 118.552 60 118 60Z" fill="#949494"/><path fill-rule="evenodd" clip-rule="evenodd" d="M149.171 44C149.583 42.8348 150.694 42 152 42C153.657 42 155 43.3431 155 45C155 46.6569 153.657 48 152 48C150.694 48 149.583 47.1652 149.171 46L142 46C141.448 46 141 45.5523 141 45C141 44.4477 141.448 44 142 44L149.171 44ZM152 46C151.448 46 151 45.5523 151 45C151 44.4477 151.448 44 152 44C152.552 44 153 44.4477 153 45C153 45.5523 152.552 46 152 46Z" fill="#949494"/><path fill-rule="evenodd" clip-rule="evenodd" d="M104.829 37H107L107 51H104.829C104.417 49.8348 103.306 49 102 49C100.343 49 99 50.3431 99 52C99 53.6569 100.343 55 102 55C103.306 55 104.417 54.1652 104.829 53H108C108.265 53 108.52 52.8946 108.707 52.7071C108.895 52.5196 109 52.2652 109 52V45H112C112.552 45 113 44.5523 113 44C113 43.4477 112.552 43 112 43H109V36C109 35.4477 108.552 35 108 35H104.829C104.417 33.8348 103.306 33 102 33C100.343 33 99 34.3431 99 36C99 37.6569 100.343 39 102 39C103.306 39 104.417 38.1652 104.829 37ZM103 52C103 51.4477 102.552 51 102 51C101.448 51 101 51.4477 101 52C101 52.5523 101.448 53 102 53C102.552 53 103 52.5523 103 52ZM102 35C102.552 35 103 35.4477 103 36C103 36.5523 102.552 37 102 37C101.448 37 101 36.5523 101 36C101 35.4477 101.448 35 102 35Z" fill="#949494"/><path fill-rule="evenodd" clip-rule="evenodd" d="M127 54C126.448 54 126 54.4477 126 55L126 58.1707C124.835 58.5825 124 59.6938 124 61C124 62.6569 125.343 64 127 64C128.657 64 130 62.6569 130 61C130 59.6938 129.165 58.5825 128 58.1707L128 56H142V58.1707C140.835 58.5825 140 59.6938 140 61C140 62.6569 141.343 64 143 64C144.657 64 146 62.6569 146 61C146 59.6938 145.165 58.5825 144 58.1707V55C144 54.7348 143.895 54.4804 143.707 54.2929C143.52 54.1054 143.265 54 143 54H136V51C136 50.4477 135.552 50 135 50C134.448 50 134 50.4477 134 51V54H127ZM142 61C142 60.4477 142.448 60 143 60C143.552 60 144 60.4477 144 61C144 61.5523 143.552 62 143 62C142.448 62 142 61.5523 142 61ZM127 60C126.448 60 126 60.4477 126 61C126 61.5523 126.448 62 127 62C127.552 62 128 61.5523 128 61C128 60.4477 127.552 60 127 60Z" fill="#949494"/><path fill-rule="evenodd" clip-rule="evenodd" d="M149.171 35L147 35V21L149.171 21C149.583 22.1652 150.694 23 152 23C153.657 23 155 21.6569 155 20C155 18.3431 153.657 17 152 17C150.694 17 149.583 17.8348 149.171 19L146 19C145.735 19 145.48 19.1054 145.293 19.2929C145.105 19.4804 145 19.7348 145 20V27L142 27C141.448 27 141 27.4477 141 28C141 28.5523 141.448 29 142 29L145 29V36C145 36.5523 145.448 37 146 37L149.171 37C149.583 38.1652 150.694 39 152 39C153.657 39 155 37.6569 155 36C155 34.3431 153.657 33 152 33C150.694 33 149.583 33.8348 149.171 35ZM152 19C151.448 19 151 19.4477 151 20C151 20.5523 151.448 21 152 21C152.552 21 153 20.5523 153 20C153 19.4477 152.552 19 152 19ZM152 37C151.448 37 151 36.5523 151 36C151 35.4477 151.448 35 152 35C152.552 35 153 35.4477 153 36C153 36.5523 152.552 37 152 37Z" fill="#949494"/><path fill-rule="evenodd" clip-rule="evenodd" d="M132 36C132 38.7614 129.761 41 127 41C124.239 41 122 38.7614 122 36C122 33.2386 124.239 31 127 31C129.761 31 132 33.2386 132 36ZM130 36C130 37.6569 128.657 39 127 39C125.343 39 124 37.6569 124 36C124 34.3431 125.343 33 127 33C128.657 33 130 34.3431 130 36Z" fill="#949494"/><path fill-rule="evenodd" clip-rule="evenodd" d="M123.668 24.3254C123.982 22.9642 125.194 22 126.591 22H127.409C128.806 22 130.018 22.9642 130.332 24.3254L130.555 25.2903C130.709 25.9595 131.477 26.2774 132.059 25.9134L132.899 25.3885C134.084 24.6481 135.623 24.8234 136.61 25.8112L137.189 26.3896C138.176 27.3774 138.352 28.9163 137.611 30.1009L137.086 30.9408C136.722 31.5232 137.04 32.2907 137.71 32.4452L138.675 32.6679C140.036 32.982 141 34.1941 141 35.591V36.409C141 37.8059 140.036 39.018 138.675 39.3321L137.71 39.5548C137.04 39.7092 136.723 40.4768 137.087 41.0592L137.611 41.8989C138.352 43.0835 138.176 44.6224 137.189 45.6102L136.61 46.1886C135.622 47.1764 134.084 47.3516 132.899 46.6112L132.059 46.0864C131.477 45.7224 130.709 46.0403 130.555 46.7095L130.332 47.6746C130.018 49.0358 128.806 50 127.409 50H126.591C125.194 50 123.982 49.0358 123.668 47.6746L123.445 46.7095C123.291 46.0403 122.523 45.7224 121.941 46.0864L121.101 46.6112C119.916 47.3516 118.378 47.1764 117.39 46.1886L116.811 45.6102C115.824 44.6224 115.648 43.0835 116.389 41.8989L116.913 41.0592C117.277 40.4768 116.96 39.7092 116.29 39.5548L115.325 39.3321C113.964 39.018 113 37.8059 113 36.409V35.591C113 34.1941 113.964 32.982 115.325 32.6679L116.29 32.4452C116.96 32.2907 117.278 31.5232 116.914 30.9408L116.389 30.1009C115.648 28.9163 115.824 27.3774 116.811 26.3896L117.39 25.8112C118.377 24.8234 119.916 24.6481 121.101 25.3885L121.941 25.9134C122.523 26.2774 123.291 25.9595 123.445 25.2903L123.668 24.3254ZM126.591 24C126.125 24 125.721 24.3214 125.617 24.7751L125.394 25.74C124.931 27.7476 122.628 28.7014 120.881 27.6094L120.041 27.0845C119.646 26.8377 119.133 26.8962 118.804 27.2254L118.226 27.8038C117.896 28.1331 117.838 28.646 118.085 29.0409L118.61 29.8808C119.702 31.628 118.748 33.9306 116.74 34.3939L115.775 34.6166C115.321 34.7213 115 35.1254 115 35.591V36.409C115 36.8746 115.321 37.2787 115.775 37.3834L116.74 37.606C118.748 38.0693 119.701 40.372 118.609 42.1192L118.085 42.9589C117.838 43.3537 117.896 43.8667 118.226 44.196L118.804 44.7744C119.133 45.1036 119.646 45.162 120.041 44.9152L120.881 44.3904C122.628 43.2984 124.931 44.2522 125.394 46.2598L125.617 47.2249C125.721 47.6786 126.125 48 126.591 48H127.409C127.875 48 128.279 47.6786 128.383 47.2249L128.606 46.2598C129.069 44.2522 131.372 43.2984 133.119 44.3904L133.959 44.9152C134.354 45.162 134.867 45.1036 135.196 44.7744L135.774 44.196C136.104 43.8667 136.162 43.3537 135.915 42.9589L135.391 42.1192C134.299 40.372 135.252 38.0693 137.26 37.606L138.225 37.3834C138.679 37.2787 139 36.8746 139 36.409V35.591C139 35.1254 138.679 34.7213 138.225 34.6166L137.26 34.3939C135.252 33.9306 134.298 31.628 135.39 29.8808L135.915 29.0409C136.162 28.646 136.104 28.1331 135.774 27.8038L135.196 27.2254C134.867 26.8962 134.354 26.8377 133.959 27.0845L133.119 27.6094C131.372 28.7014 129.069 27.7476 128.606 25.74L128.383 24.7751C128.279 24.3214 127.875 24 127.409 24H126.591Z" fill="#949494"/></g><g filter="url(#filter1_d_155_499)"><rect x="47" y="157" width="160" height="224" rx="80" fill="white" shape-rendering="crispEdges"/><path d="M134.222 256.811C133.683 256.689 133.147 257.026 133.025 257.565C132.903 258.103 133.24 258.639 133.779 258.761C134.891 259.014 135.934 259.287 136.977 259.56C137.802 259.776 138.627 259.993 139.488 260.199C141.007 260.563 142.526 260.865 144 260.965L144 271C144 271.552 144.448 272 145 272C145.552 272 146 271.552 146 271L146 259H145C143.46 259 141.781 258.692 139.954 258.254C139.204 258.074 138.394 257.863 137.56 257.645C136.458 257.358 135.315 257.059 134.222 256.811Z" fill="#949494"/><path d="M122.248 258.876C122.783 258.74 123.106 258.195 122.969 257.66C122.832 257.125 122.287 256.802 121.752 256.939C120.944 257.146 120.14 257.37 119.354 257.59L119.16 257.644C118.308 257.882 117.477 258.112 116.657 258.314C115.014 258.72 113.468 259 112 259H111V271C111 271.552 111.448 272 112 272C112.552 272 113 271.552 113 271V260.965C114.38 260.87 115.767 260.594 117.137 260.256C117.989 260.045 118.847 259.808 119.697 259.57L119.888 259.517C120.678 259.297 121.461 259.078 122.248 258.876Z" fill="#949494"/><path d="M144.942 283.321C145.119 282.797 144.839 282.23 144.315 282.053C143.792 281.876 143.225 282.156 143.048 282.679C141.721 286.6 138.878 291.014 133.603 293.853C133.116 294.114 132.934 294.721 133.196 295.207C133.458 295.693 134.064 295.875 134.55 295.614C140.355 292.491 143.486 287.624 144.942 283.321Z" fill="#949494"/><path d="M113.755 282.727C113.604 282.195 113.051 281.887 112.52 282.038C111.988 282.189 111.68 282.742 111.831 283.273C113.054 287.576 115.84 292.469 121.516 295.608C121.999 295.876 122.608 295.7 122.875 295.217C123.142 294.734 122.967 294.125 122.484 293.858C117.381 291.036 114.869 286.648 113.755 282.727Z" fill="#949494"/><path d="M128 283C129.105 283 130 282.105 130 281C130 279.895 129.105 279 128 279C126.895 279 126 279.895 126 281C126 282.105 126.895 283 128 283Z" fill="#949494"/><path fill-rule="evenodd" clip-rule="evenodd" d="M123 273V269C123 266.239 125.239 264 128 264C130.761 264 133 266.239 133 269V273H134C135.657 273 137 274.343 137 276V284C137 285.657 135.657 287 134 287H122C120.343 287 119 285.657 119 284V276C119 274.343 120.343 273 122 273H123ZM131 269V273H125V269C125 267.343 126.343 266 128 266C129.657 266 131 267.343 131 269ZM122 275C121.448 275 121 275.448 121 276V284C121 284.552 121.448 285 122 285H134C134.552 285 135 284.552 135 284V276C135 275.448 134.552 275 134 275H122Z" fill="#949494"/><path fill-rule="evenodd" clip-rule="evenodd" d="M122.417 248.805C124.541 248.335 126.508 248 128 248C129.613 248 131.638 248.333 133.792 248.804C135.96 249.279 138.326 249.91 140.636 250.535L141.265 250.705C143.364 251.273 145.398 251.823 147.211 252.245C149.225 252.713 150.876 253 152 253H153V269.072C153 274.784 153 281.844 149.908 288.544C146.776 295.331 140.54 301.62 128.334 305.943L128.01 306.057L127.684 305.949C115.439 301.867 109.209 295.183 106.086 288.156C103 281.212 103 274.034 103 269.051L103 253H104C105.126 253 106.81 252.712 108.864 252.244C110.802 251.802 112.991 251.218 115.227 250.621L115.555 250.534C117.895 249.91 120.275 249.279 122.417 248.805ZM105 254.951L105 269C105 271.076 105.002 273.458 105.21 276H109.171C109.583 274.835 110.694 274 112 274C113.657 274 115 275.343 115 277C115 278.657 113.657 280 112 280C110.694 280 109.583 279.165 109.171 278H105.416C105.796 281.025 106.523 284.215 107.914 287.344C110.681 293.57 116.126 299.652 127 303.594V299.829C125.835 299.417 125 298.306 125 297C125 295.343 126.343 294 128 294C129.657 294 131 295.343 131 297C131 298.306 130.165 299.417 129 299.829V303.568C139.899 299.422 145.335 293.68 148.092 287.706C149.565 284.515 150.292 281.224 150.651 278H147.829C147.417 279.165 146.306 280 145 280C143.343 280 142 278.657 142 277C142 275.343 143.343 274 145 274C146.306 274 147.417 274.835 147.829 276H150.83C150.998 273.584 151 271.226 151 269V254.951C149.782 254.841 148.32 254.556 146.758 254.193C144.908 253.762 142.838 253.202 140.748 252.637L140.114 252.465C137.799 251.84 135.478 251.221 133.364 250.758C131.714 250.397 130.23 250.14 129 250.043V254.171C130.165 254.583 131 255.694 131 257C131 258.657 129.657 260 128 260C126.343 260 125 258.657 125 257C125 255.694 125.835 254.583 127 254.171V250.049C125.862 250.151 124.45 250.403 122.849 250.758C120.756 251.221 118.418 251.84 116.07 252.466L115.728 252.557C113.505 253.151 111.284 253.743 109.308 254.194C107.715 254.557 106.228 254.842 105 254.951ZM128 258C128.552 258 129 257.552 129 257C129 256.448 128.552 256 128 256C127.448 256 127 256.448 127 257C127 257.552 127.448 258 128 258ZM146 277C146 277.552 145.552 278 145 278C144.448 278 144 277.552 144 277C144 276.448 144.448 276 145 276C145.552 276 146 276.448 146 277ZM128 298C128.552 298 129 297.552 129 297C129 296.448 128.552 296 128 296C127.448 296 127 296.448 127 297C127 297.552 127.448 298 128 298ZM113 277C113 277.552 112.552 278 112 278C111.448 278 111 277.552 111 277C111 276.448 111.448 276 112 276C112.552 276 113 276.448 113 277Z" fill="#949494"/></g><g filter="url(#filter2_d_155_499)"><rect x="47" y="393" width="160" height="224" rx="80" fill="white" shape-rendering="crispEdges"/><path d="M102.399 480V492.974H152.798V480H102.399ZM151.8 491.876H103.397V480.898H151.8V491.876Z" fill="#949494" stroke="#949494"/><path d="M148.008 483.992H118.267V489.681H148.008V483.992ZM147.01 488.683H119.265V484.99H147.01V488.683Z" fill="#949494" stroke="#949494"/><path d="M110.184 489.681C111.78 489.681 113.078 488.383 113.078 486.787C113.078 485.19 111.78 483.892 110.184 483.892C108.587 483.892 107.289 485.19 107.289 486.787C107.289 488.383 108.587 489.681 110.184 489.681ZM110.184 484.89C111.281 484.89 112.08 485.789 112.08 486.787C112.08 487.785 111.182 488.683 110.184 488.683C109.086 488.683 108.287 487.785 108.287 486.787C108.287 485.789 109.086 484.89 110.184 484.89Z" fill="#949494" stroke="#949494"/><path d="M102.1 525.509H126.751V529.002H102.299V530H152.2V529.002H127.749V525.509H152.399V512.535H102V525.509H102.1ZM103.098 513.633H151.501V524.611H103.098V513.633Z" fill="#949494" stroke="#949494"/><path d="M117.968 522.315H147.709V516.627H117.968V522.315ZM118.966 517.625H146.711V521.317H118.966V517.625Z" fill="#949494" stroke="#949494"/><path d="M109.884 516.527C108.287 516.527 106.99 517.824 106.99 519.421C106.99 521.018 108.287 522.316 109.884 522.316C111.481 522.316 112.778 521.018 112.778 519.421C112.778 517.824 111.481 516.527 109.884 516.527ZM109.884 521.318C108.786 521.318 107.988 520.419 107.988 519.421C107.988 518.423 108.886 517.525 109.884 517.525C110.882 517.525 111.78 518.423 111.78 519.421C111.78 520.419 110.882 521.318 109.884 521.318Z" fill="#949494" stroke="#949494"/><path d="M102.1 509.242H152.499V496.268H102.1V509.242ZM103.098 497.266H151.501V508.244H103.098V497.266Z" fill="#949494" stroke="#949494"/><path d="M117.968 505.948H147.709V500.26H117.968V505.948ZM118.966 501.357H146.711V505.05H118.966V501.357Z" fill="#949494" stroke="#949494"/><path d="M109.884 500.26C108.287 500.26 106.99 501.557 106.99 503.154C106.99 504.751 108.287 506.048 109.884 506.048C111.481 506.048 112.778 504.751 112.778 503.154C112.778 501.557 111.481 500.26 109.884 500.26ZM109.884 505.05C108.786 505.05 107.988 504.152 107.988 503.154C107.988 502.056 108.886 501.258 109.884 501.258C110.882 501.258 111.78 502.156 111.78 503.154C111.78 504.152 110.882 505.05 109.884 505.05Z" fill="#949494" stroke="#949494"/></g><g filter="url(#filter3_d_155_499)"><rect x="227" y="-15" width="160" height="224" rx="80" fill="white" shape-rendering="crispEdges"/><path fill-rule="evenodd" clip-rule="evenodd" d="M303 93C305.761 93 308 90.7614 308 88C308 85.2386 305.761 83 303 83C300.239 83 298 85.2386 298 88C298 90.7614 300.239 93 303 93ZM303 91C304.657 91 306 89.6569 306 88C306 86.3431 304.657 85 303 85C301.343 85 300 86.3431 300 88C300 89.6569 301.343 91 303 91Z" fill="#949494"/><path fill-rule="evenodd" clip-rule="evenodd" d="M299.668 76.3254C299.982 74.9642 301.194 74 302.591 74H303.409C304.806 74 306.018 74.9642 306.332 76.3254L306.555 77.2903C306.709 77.9595 307.477 78.2774 308.059 77.9134L308.899 77.3885C310.084 76.6481 311.623 76.8234 312.61 77.8112L313.189 78.3896C314.176 79.3774 314.352 80.9163 313.611 82.1009L313.086 82.9408C312.722 83.5232 313.04 84.2907 313.71 84.4452L314.675 84.6679C316.036 84.982 317 86.1941 317 87.591V88.409C317 89.8059 316.036 91.018 314.675 91.3321L313.71 91.5548C313.04 91.7092 312.723 92.4768 313.087 93.0592L313.611 93.8989C314.352 95.0835 314.176 96.6224 313.189 97.6102L312.61 98.1886C311.622 99.1764 310.084 99.3516 308.899 98.6112L308.059 98.0864C307.477 97.7224 306.709 98.0403 306.555 98.7095L306.332 99.6746C306.018 101.036 304.806 102 303.409 102H302.591C301.194 102 299.982 101.036 299.668 99.6746L299.445 98.7095C299.291 98.0403 298.523 97.7224 297.941 98.0864L297.101 98.6112C295.916 99.3516 294.378 99.1764 293.39 98.1886L292.811 97.6102C291.824 96.6224 291.648 95.0835 292.389 93.8989L292.913 93.0592C293.277 92.4768 292.96 91.7092 292.29 91.5548L291.325 91.3321C289.964 91.018 289 89.8059 289 88.409V87.591C289 86.1941 289.964 84.982 291.325 84.6679L292.29 84.4452C292.96 84.2907 293.278 83.5232 292.914 82.9408L292.389 82.1009C291.648 80.9163 291.824 79.3774 292.811 78.3896L293.39 77.8112C294.377 76.8234 295.916 76.6481 297.101 77.3885L297.941 77.9134C298.523 78.2774 299.291 77.9595 299.445 77.2903L299.668 76.3254ZM302.591 76C302.125 76 301.721 76.3214 301.617 76.7751L301.394 77.74C300.931 79.7476 298.628 80.7014 296.881 79.6094L296.041 79.0845C295.646 78.8377 295.133 78.8962 294.804 79.2254L294.226 79.8038C293.896 80.1331 293.838 80.646 294.085 81.0409L294.61 81.8808C295.702 83.628 294.748 85.9306 292.74 86.3939L291.775 86.6166C291.321 86.7213 291 87.1254 291 87.591V88.409C291 88.8746 291.321 89.2787 291.775 89.3834L292.74 89.606C294.748 90.0693 295.701 92.372 294.609 94.1192L294.085 94.9589C293.838 95.3537 293.896 95.8667 294.226 96.196L294.804 96.7744C295.133 97.1036 295.646 97.162 296.041 96.9152L296.881 96.3904C298.628 95.2984 300.931 96.2522 301.394 98.2598L301.617 99.2249C301.721 99.6786 302.125 100 302.591 100H303.409C303.875 100 304.279 99.6786 304.383 99.2249L304.606 98.2598C305.069 96.2522 307.372 95.2984 309.119 96.3904L309.959 96.9152C310.354 97.162 310.867 97.1036 311.196 96.7744L311.774 96.196C312.104 95.8667 312.162 95.3537 311.915 94.9589L311.391 94.1192C310.299 92.372 311.252 90.0693 313.26 89.606L314.225 89.3834C314.679 89.2787 315 88.8746 315 88.409V87.591C315 87.1254 314.679 86.7213 314.225 86.6166L313.26 86.3939C311.252 85.9306 310.298 83.628 311.39 81.8808L311.915 81.0409C312.162 80.646 312.104 80.1331 311.774 79.8038L311.196 79.2254C310.867 78.8962 310.354 78.8377 309.959 79.0845L309.119 79.6094C307.372 80.7014 305.069 79.7476 304.606 77.74L304.383 76.7751C304.279 76.3214 303.875 76 303.409 76H302.591Z" fill="#949494"/><path fill-rule="evenodd" clip-rule="evenodd" d="M330 93C330 94.6569 328.657 96 327 96C325.343 96 324 94.6569 324 93C324 91.3431 325.343 90 327 90C328.657 90 330 91.3431 330 93ZM328 93C328 93.5523 327.552 94 327 94C326.448 94 326 93.5523 326 93C326 92.4477 326.448 92 327 92C327.552 92 328 92.4477 328 93Z" fill="#949494"/><path fill-rule="evenodd" clip-rule="evenodd" d="M326.973 85C325.893 85 324.956 85.7455 324.713 86.798C324.663 87.0118 324.418 87.1134 324.232 86.9971C323.316 86.4246 322.126 86.5601 321.362 87.3239L321.324 87.3623C320.56 88.1261 320.425 89.3159 320.997 90.2319C321.113 90.418 321.012 90.6633 320.798 90.7126C319.746 90.9555 319 91.8927 319 92.9728V93.0272C319 94.1073 319.746 95.0445 320.798 95.2874C321.012 95.3367 321.113 95.582 320.997 95.768C320.425 96.684 320.56 97.8738 321.324 98.6375L321.362 98.676C322.126 99.4398 323.316 99.5753 324.232 99.0028C324.418 98.8865 324.663 98.9881 324.713 99.202C324.956 100.254 325.893 101 326.973 101H327.027C328.107 101 329.044 100.254 329.287 99.202C329.337 98.9881 329.582 98.8865 329.768 99.0028C330.684 99.5753 331.874 99.4398 332.638 98.676L332.676 98.6375C333.44 97.8738 333.575 96.684 333.003 95.768C332.887 95.582 332.988 95.3367 333.202 95.2874C334.254 95.0445 335 94.1073 335 93.0272V92.9728C335 91.8927 334.254 90.9555 333.202 90.7126C332.988 90.6633 332.887 90.418 333.003 90.2319C333.575 89.3159 333.44 88.1261 332.676 87.3623L332.638 87.3239C331.874 86.5601 330.684 86.4246 329.768 86.9971C329.582 87.1134 329.337 87.0118 329.287 86.798C329.044 85.7455 328.107 85 327.027 85H326.973ZM326.661 87.2477C326.695 87.1027 326.824 87 326.973 87H327.027C327.176 87 327.305 87.1027 327.339 87.2477C327.697 88.7999 329.477 89.5373 330.828 88.6931C330.954 88.6142 331.118 88.6329 331.223 88.7381L331.262 88.7765C331.367 88.8817 331.386 89.0457 331.307 89.1719C330.463 90.5228 331.2 92.3032 332.752 92.6614C332.897 92.6949 333 92.824 333 92.9728V93.0272C333 93.176 332.897 93.3051 332.752 93.3386C331.2 93.6968 330.463 95.4771 331.307 96.828C331.386 96.9542 331.367 97.1181 331.262 97.2233L331.223 97.2618C331.118 97.367 330.954 97.3857 330.828 97.3068C329.477 96.4625 327.697 97.2001 327.339 98.7523C327.305 98.8973 327.176 99 327.027 99H326.973C326.824 99 326.695 98.8973 326.661 98.7523C326.303 97.2001 324.523 96.4625 323.172 97.3068C323.046 97.3857 322.882 97.367 322.777 97.2618L322.738 97.2233C322.633 97.1181 322.614 96.9542 322.693 96.828C323.537 95.4771 322.8 93.6968 321.248 93.3386C321.103 93.3051 321 93.176 321 93.0272V92.9728C321 92.824 321.103 92.6949 321.248 92.6614C322.8 92.3032 323.537 90.5228 322.693 89.1719C322.614 89.0457 322.633 88.8817 322.738 88.7765L322.777 88.7381C322.882 88.6329 323.046 88.6142 323.172 88.6931C324.523 89.5373 326.303 88.7999 326.661 87.2477Z" fill="#949494"/><path fill-rule="evenodd" clip-rule="evenodd" d="M284 73C284 71.3431 285.343 70 287 70H337C338.657 70 340 71.3431 340 73V108C340 109.657 338.657 111 337 111H320V117C320 118.105 319.105 119 318 119H305C303.895 119 303 118.105 303 117V111H287C285.343 111 284 109.657 284 108V73ZM287 72C286.448 72 286 72.4477 286 73V104H338V73C338 72.4477 337.552 72 337 72H287ZM338 106H286V108C286 108.552 286.448 109 287 109H337C337.552 109 338 108.552 338 108V106ZM305 111H318V117H305V111Z" fill="#949494"/></g><g filter="url(#filter4_d_155_499)"><rect x="227" y="221" width="160" height="224" rx="80" fill="white" fill-opacity="0.6" shape-rendering="crispEdges"/><path fill-rule="evenodd" clip-rule="evenodd" d="M293 314C293 312.343 294.343 311 296 311H301C302.657 311 304 312.343 304 314C304 315.657 302.657 317 301 317H299.5V319H303C303.552 319 304 319.448 304 320V325C304 325.552 303.552 326 303 326H299.5V328.407L303.28 331.5H315.5C317.157 331.5 318.5 332.843 318.5 334.5V339.145C319.946 339.575 321 340.914 321 342.5C321 344.086 319.946 345.425 318.5 345.855V350C318.5 351.657 317.157 353 315.5 353H303.829C303.417 354.165 302.306 355 301 355H296C294.343 355 293 353.657 293 352C293 350.343 294.343 349 296 349H297.5V346H294C293.448 346 293 345.552 293 345V340C293 339.448 293.448 339 294 339H297.5V336.593L293.355 333.202C292.882 332.814 292.882 332.186 293.355 331.798L297.5 328.407V326H294C293.448 326 293 325.552 293 325V320C293 319.448 293.448 319 294 319H297.5V317H296C294.343 317 293 315.657 293 314ZM296 313H301C301.552 313 302 313.448 302 314C302 314.552 301.552 315 301 315H296C295.448 315 295 314.552 295 314C295 313.448 295.448 313 296 313ZM316.5 334.5V339.145C315.371 339.481 314.481 340.371 314.145 341.5H304V340C304 339.448 303.552 339 303 339H299.5V336.593L303.28 333.5H315.5C316.052 333.5 316.5 333.948 316.5 334.5ZM304 343.5H314.145C314.481 344.629 315.371 345.519 316.5 345.855V350C316.5 350.552 316.052 351 315.5 351H303.829C303.417 349.835 302.306 349 301 349H299.5V346H303C303.552 346 304 345.552 304 345V343.5ZM302 352C302 351.448 301.552 351 301 351H296C295.448 351 295 351.448 295 352C295 352.552 295.448 353 296 353H301C301.552 353 302 352.552 302 352ZM295 324V321H302V324H295ZM295 341V344H302V341H295ZM295.656 332.5L298.5 330.173L301.344 332.5L298.5 334.827L295.656 332.5ZM317.5 344C318.328 344 319 343.328 319 342.5C319 341.672 318.328 341 317.5 341C316.672 341 316 341.672 316 342.5C316 343.328 316.672 344 317.5 344Z" fill="#949494"/><path fill-rule="evenodd" clip-rule="evenodd" d="M329 318.02L328.999 318.04C329 318.062 329 318.085 329 318.107V358C329 359.657 327.657 361 326 361H288C286.343 361 285 359.657 285 358V308C285 306.343 286.343 305 288 305H315.676C316.461 305 317.214 305.307 317.775 305.856L328.099 315.964C328.614 316.468 328.928 317.139 328.989 317.852C328.996 317.9 329 317.95 329 318L329 318.02ZM288 359H326C326.552 359 327 358.552 327 358V319H317C315.343 319 314 317.657 314 316V307H288C287.448 307 287 307.448 287 308V358C287 358.552 287.448 359 288 359ZM316.376 307.285C316.268 307.18 316.14 307.102 316 307.054V316C316 316.552 316.448 317 317 317H326.298L316.376 307.285Z" fill="#949494"/></g><g filter="url(#filter5_d_155_499)"><rect x="227" y="457" width="160" height="224" rx="80" fill="white" shape-rendering="crispEdges"/><path fill-rule="evenodd" clip-rule="evenodd" d="M312 576C312 577.657 310.657 579 309 579C307.343 579 306 577.657 306 576C306 574.689 306.841 573.574 308.014 573.166C308.005 573.112 308 573.057 308 573V567C308 566.448 308.448 566 309 566C309.552 566 310 566.448 310 567V573C310 573.057 309.995 573.112 309.986 573.166C311.159 573.574 312 574.689 312 576ZM310 576C310 576.552 309.552 577 309 577C308.448 577 308 576.552 308 576C308 575.448 308.448 575 309 575C309.552 575 310 575.448 310 576Z" fill="#919191"/><path fill-rule="evenodd" clip-rule="evenodd" d="M309 593C299.611 593 292 585.389 292 576C292 566.611 299.611 559 309 559C318.389 559 326 566.611 326 576C326 585.389 318.389 593 309 593ZM322 575H323.967C323.835 572.994 323.309 571.095 322.464 569.381L321.624 569.866C321.146 570.142 320.535 569.978 320.258 569.5C319.982 569.022 320.146 568.41 320.624 568.134L321.463 567.65C320.373 566.026 318.974 564.627 317.35 563.537L316.866 564.376C316.59 564.854 315.978 565.018 315.5 564.742C315.022 564.465 314.858 563.854 315.134 563.376L315.619 562.536C313.905 561.691 312.006 561.165 310 561.033V563C310 563.552 309.552 564 309 564C308.448 564 308 563.552 308 563V561.033C305.994 561.165 304.095 561.691 302.381 562.536L302.866 563.376C303.142 563.854 302.978 564.466 302.5 564.742C302.022 565.018 301.41 564.854 301.134 564.376L300.65 563.537C299.026 564.627 297.627 566.026 296.537 567.65L297.376 568.134C297.854 568.41 298.018 569.022 297.742 569.5C297.465 569.978 296.854 570.142 296.376 569.866L295.536 569.381C294.691 571.095 294.165 572.994 294.033 575H296C296.552 575 297 575.448 297 576C297 576.552 296.552 577 296 577H294.033C294.165 579.006 294.691 580.905 295.536 582.619L296.376 582.134C296.854 581.858 297.465 582.022 297.742 582.5C298.018 582.978 297.854 583.59 297.376 583.866L296.537 584.35C297.627 585.974 299.026 587.373 300.65 588.463L301.134 587.624C301.41 587.146 302.022 586.982 302.5 587.258C302.978 587.534 303.142 588.146 302.866 588.624L302.381 589.464C304.095 590.309 305.994 590.835 308 590.967V589C308 588.448 308.448 588 309 588C309.552 588 310 588.448 310 589V590.967C312.006 590.835 313.905 590.309 315.619 589.464L315.134 588.624C314.858 588.146 315.022 587.535 315.5 587.258C315.978 586.982 316.59 587.146 316.866 587.624L317.35 588.463C318.974 587.373 320.373 585.974 321.463 584.35L320.624 583.866C320.146 583.59 319.982 582.978 320.258 582.5C320.535 582.022 321.146 581.858 321.624 582.134L322.464 582.619C323.309 580.905 323.835 579.006 323.967 577H322C321.448 577 321 576.552 321 576C321 575.448 321.448 575 322 575Z" fill="#919191"/><path fill-rule="evenodd" clip-rule="evenodd" d="M313 554C313 554.122 312.989 554.241 312.968 554.357C316.285 554.961 319.341 556.309 321.96 558.221C322.033 557.569 322.32 556.936 322.82 556.436C323.991 555.264 325.891 555.264 327.063 556.436L329.261 558.635C330.433 559.806 330.433 561.706 329.261 562.877C328.711 563.428 327.999 563.72 327.278 563.753C329.629 567.253 331 571.467 331 576C331 588.15 321.15 598 309 598C296.85 598 287 588.15 287 576C287 571.465 288.372 567.25 290.725 563.748C290.031 563.698 289.351 563.408 288.82 562.877C287.648 561.706 287.648 559.806 288.82 558.635L291.019 556.436C292.19 555.264 294.09 555.264 295.261 556.436C295.747 556.922 296.032 557.534 296.115 558.166C298.717 556.283 301.747 554.955 305.032 554.357C305.011 554.241 305 554.122 305 554V553C305 552.448 304.552 552 304 552C302.343 552 301 550.657 301 549C301 547.343 302.343 546 304 546H314C315.657 546 317 547.343 317 549C317 550.657 315.657 552 314 552C313.448 552 313 552.448 313 553V554ZM304 548C303.448 548 303 548.448 303 549C303 549.552 303.448 550 304 550C305.657 550 307 551.343 307 553V554H311V553C311 551.343 312.343 550 314 550C314.552 550 315 549.552 315 549C315 548.448 314.552 548 314 548H304ZM289 576C289 564.954 297.954 556 309 556C320.046 556 329 564.954 329 576C329 587.046 320.046 596 309 596C297.954 596 289 587.046 289 576ZM290.234 560.049L292.433 557.85C292.823 557.46 293.457 557.46 293.847 557.85C294.238 558.241 294.238 558.874 293.847 559.264L291.648 561.463C291.258 561.853 290.625 561.853 290.234 561.463C289.844 561.072 289.844 560.439 290.234 560.049ZM325.648 557.85L327.847 560.049C328.238 560.439 328.238 561.072 327.847 561.463C327.457 561.853 326.823 561.853 326.433 561.463L324.234 559.264C323.844 558.874 323.844 558.241 324.234 557.85C324.625 557.46 325.258 557.46 325.648 557.85Z" fill="#919191"/><path d="M283.5 566C282.948 566 282.5 566.448 282.5 567C282.5 567.552 282.948 568 283.5 568H286C286.552 568 287 567.552 287 567C287 566.448 286.552 566 286 566H283.5Z" fill="#919191"/><path d="M276.5 573C276.5 572.448 276.948 572 277.5 572H284C284.552 572 285 572.448 285 573C285 573.552 284.552 574 284 574H277.5C276.948 574 276.5 573.552 276.5 573Z" fill="#919191"/><path d="M275.5 578C274.948 578 274.5 578.448 274.5 579C274.5 579.552 274.948 580 275.5 580H284C284.552 580 285 579.552 285 579C285 578.448 284.552 578 284 578H275.5Z" fill="#919191"/><path d="M280.5 585C280.5 584.448 280.948 584 281.5 584H286C286.552 584 287 584.448 287 585C287 585.552 286.552 586 286 586H281.5C280.948 586 280.5 585.552 280.5 585Z" fill="#919191"/><path d="M286.5 589C285.948 589 285.5 589.448 285.5 590C285.5 590.552 285.948 591 286.5 591H289C289.552 591 290 590.552 290 590C290 589.448 289.552 589 289 589H286.5Z" fill="#919191"/></g></g><defs><filter id="filter0_d_155_499" x="-17" y="-108" width="288" height="352" filterUnits="userSpaceOnUse" color-interpolation-filters="sRGB"><feFlood flood-opacity="0" result="BackgroundImageFix"/><feColorMatrix in="SourceAlpha" type="matrix" values="0 0 0 0 0 0 0 0 0 0 0 0 0 0 0 0 0 0 127 0" result="hardAlpha"/><feOffset dy="35"/><feGaussianBlur stdDeviation="32"/><feComposite in2="hardAlpha" operator="out"/><feColorMatrix type="matrix" values="0 0 0 0 0 0 0 0 0 0 0 0 0 0 0 0 0 0 0.08 0"/><feBlend mode="normal" in2="BackgroundImageFix" result="effect1_dropShadow_155_499"/><feBlend mode="normal" in="SourceGraphic" in2="effect1_dropShadow_155_499" result="shape"/></filter><filter id="filter1_d_155_499" x="-17" y="128" width="288" height="352" filterUnits="userSpaceOnUse" color-interpolation-filters="sRGB"><feFlood flood-opacity="0" result="BackgroundImageFix"/><feColorMatrix in="SourceAlpha" type="matrix" values="0 0 0 0 0 0 0 0 0 0 0 0 0 0 0 0 0 0 127 0" result="hardAlpha"/><feOffset dy="35"/><feGaussianBlur stdDeviation="32"/><feComposite in2="hardAlpha" operator="out"/><feColorMatrix type="matrix" values="0 0 0 0 0 0 0 0 0 0 0 0 0 0 0 0 0 0 0.08 0"/><feBlend mode="normal" in2="BackgroundImageFix" result="effect1_dropShadow_155_499"/><feBlend mode="normal" in="SourceGraphic" in2="effect1_dropShadow_155_499" result="shape"/></filter><filter id="filter2_d_155_499" x="-17" y="364" width="288" height="352" filterUnits="userSpaceOnUse" color-interpolation-filters="sRGB"><feFlood flood-opacity="0" result="BackgroundImageFix"/><feColorMatrix in="SourceAlpha" type="matrix" values="0 0 0 0 0 0 0 0 0 0 0 0 0 0 0 0 0 0 127 0" result="hardAlpha"/><feOffset dy="35"/><feGaussianBlur stdDeviation="32"/><feComposite in2="hardAlpha" operator="out"/><feColorMatrix type="matrix" values="0 0 0 0 0 0 0 0 0 0 0 0 0 0 0 0 0 0 0.08 0"/><feBlend mode="normal" in2="BackgroundImageFix" result="effect1_dropShadow_155_499"/><feBlend mode="normal" in="SourceGraphic" in2="effect1_dropShadow_155_499" result="shape"/></filter><filter id="filter3_d_155_499" x="163" y="-44" width="288" height="352" filterUnits="userSpaceOnUse" color-interpolation-filters="sRGB"><feFlood flood-opacity="0" result="BackgroundImageFix"/><feColorMatrix in="SourceAlpha" type="matrix" values="0 0 0 0 0 0 0 0 0 0 0 0 0 0 0 0 0 0 127 0" result="hardAlpha"/><feOffset dy="35"/><feGaussianBlur stdDeviation="32"/><feComposite in2="hardAlpha" operator="out"/><feColorMatrix type="matrix" values="0 0 0 0 0 0 0 0 0 0 0 0 0 0 0 0 0 0 0.08 0"/><feBlend mode="normal" in2="BackgroundImageFix" result="effect1_dropShadow_155_499"/><feBlend mode="normal" in="SourceGraphic" in2="effect1_dropShadow_155_499" result="shape"/></filter><filter id="filter4_d_155_499" x="163" y="192" width="288" height="352" filterUnits="userSpaceOnUse" color-interpolation-filters="sRGB"><feFlood flood-opacity="0" result="BackgroundImageFix"/><feColorMatrix in="SourceAlpha" type="matrix" values="0 0 0 0 0 0 0 0 0 0 0 0 0 0 0 0 0 0 127 0" result="hardAlpha"/><feOffset dy="35"/><feGaussianBlur stdDeviation="32"/><feComposite in2="hardAlpha" operator="out"/><feColorMatrix type="matrix" values="0 0 0 0 0 0 0 0 0 0 0 0 0 0 0 0 0 0 0.08 0"/><feBlend mode="normal" in2="BackgroundImageFix" result="effect1_dropShadow_155_499"/><feBlend mode="normal" in="SourceGraphic" in2="effect1_dropShadow_155_499" result="shape"/></filter><filter id="filter5_d_155_499" x="163" y="428" width="288" height="352" filterUnits="userSpaceOnUse" color-interpolation-filters="sRGB"><feFlood flood-opacity="0" result="BackgroundImageFix"/><feColorMatrix in="SourceAlpha" type="matrix" values="0 0 0 0 0 0 0 0 0 0 0 0 0 0 0 0 0 0 127 0" result="hardAlpha"/><feOffset dy="35"/><feGaussianBlur stdDeviation="32"/><feComposite in2="hardAlpha" operator="out"/><feColorMatrix type="matrix" values="0 0 0 0 0 0 0 0 0 0 0 0 0 0 0 0 0 0 0.08 0"/><feBlend mode="normal" in2="BackgroundImageFix" result="effect1_dropShadow_155_499"/><feBlend mode="normal" in="SourceGraphic" in2="effect1_dropShadow_155_499" result="shape"/></filter></defs></svg>