<svg width="187" height="187" fill="none" xmlns="http://www.w3.org/2000/svg"><path d="M112.044 110.798C119.505 111.187 126.985 110.952 134.406 110.096C141.172 109.241 147.455 106.141 152.249 101.292C154.62 98.841 156.279 95.7911 157.047 92.4692C157.816 89.1473 157.666 85.6788 156.613 82.4358C153.652 74.6442 137.445 69.19 137.445 69.19C141.575 63.58 146.016 59.9958 146.561 52.2042C146.666 46.6965 145.335 41.2565 142.698 36.4199C140.061 31.5834 136.21 27.5171 131.523 24.6217C125.148 20.3227 117.961 17.3724 110.404 15.9521C102.847 14.5318 95.0796 14.6715 87.5785 16.3625C51.1135 26.9592 56.4118 53.3729 56.4118 53.3729C53.382 51.1055 49.5956 50.0914 45.8381 50.5411C42.0806 50.9909 38.6405 52.8699 36.2314 55.7883C30.7773 61.6321 33.8939 73.3975 33.8939 73.3975C30.47 73.7495 27.2077 75.032 24.4607 77.106C21.7137 79.18 19.5868 81.9663 18.3106 85.1629C17.4498 88.2647 17.2547 91.5135 17.7382 94.696C18.2216 97.8786 19.3726 100.923 21.1156 103.629C25.4144 108.411 31.3807 111.367 37.7897 111.888C43.6883 112.628 49.6562 112.628 55.5548 111.888" stroke="#4F4F4F" stroke-width="4.71" stroke-linecap="round" stroke-linejoin="round"/><path d="M58.0478 72.5405C59.2518 72.4815 60.455 72.6726 61.5814 73.1017C62.7079 73.5309 63.7332 74.1887 64.5928 75.0338C65.9894 76.6631 66.7108 78.7644 66.6094 80.9079C66.508 83.0515 65.5915 85.0753 64.0474 86.5655C63.098 87.2291 62.0126 87.6727 60.8701 87.864C59.7277 88.0553 58.557 87.9895 57.4432 87.6713C56.3294 87.3531 55.3006 86.7906 54.4316 86.0247C53.5626 85.2588 52.8753 84.3088 52.4197 83.2438C51.9641 82.1788 51.7517 81.0256 51.798 79.8682C51.8442 78.7108 52.1479 77.5783 52.687 76.553C53.2262 75.5278 53.9871 74.6356 54.9144 73.9415C55.8417 73.2474 56.9122 72.7688 58.0478 72.5405Z" stroke="#4F4F4F" stroke-width="4.71" stroke-linecap="round" stroke-linejoin="round"/><path d="M97.8634 50.8796C99.0037 50.8062 100.146 50.9846 101.21 51.402C102.274 51.8194 103.233 52.4657 104.019 53.295C105.386 54.8119 106.103 56.8047 106.015 58.8448C105.928 60.8848 105.043 62.809 103.551 64.2034C102.003 65.0407 100.216 65.3289 98.4831 65.0212C96.7499 64.7134 95.1719 63.8278 94.0063 62.5086C92.8407 61.1894 92.1562 59.5144 92.0642 57.7564C91.9723 55.9984 92.4784 54.2611 93.5 52.8275C94.7146 51.7373 96.2408 51.0559 97.8634 50.8796Z" stroke="#4F4F4F" stroke-width="4.71" stroke-linecap="round" stroke-linejoin="round"/><path d="M95.8376 87.4223C97.0416 87.3633 98.2447 87.5544 99.3712 87.9836C100.498 88.4127 101.523 89.0705 102.383 89.9156C103.727 91.5331 104.424 93.5919 104.337 95.6935C104.251 97.7951 103.388 99.7898 101.915 101.291C100.324 102.759 98.215 103.534 96.0524 103.446C93.8898 103.358 91.8506 102.415 90.3834 100.824C88.9162 99.2328 88.1412 97.1239 88.2289 94.9613C88.3165 92.7987 89.2597 90.7595 90.8509 89.2923C92.264 88.1406 94.0156 87.4837 95.8376 87.4223Z" stroke="#4F4F4F" stroke-width="4.71" stroke-linecap="round" stroke-linejoin="round"/><path d="M17.2975 128.951L49.4771 128.562H60.2296H64.9046C65.2941 128.562 67.1641 128.562 67.7875 127.471C68.6082 125.501 68.9552 123.366 68.8004 121.238C68.8004 117.809 68.8004 111.81 68.8004 109.316C68.8004 106.823 68.8004 103.473 68.8004 101.525C68.8777 100.123 68.8777 98.7187 68.8004 97.3173L64.4371 89.5256" stroke="#4F4F4F" stroke-width="4.71" stroke-linecap="round" stroke-linejoin="round"/><path d="M130.277 128.251C141.185 128.641 152.171 128.251 163.08 128.251" stroke="#4F4F4F" stroke-width="4.71" stroke-linecap="round" stroke-linejoin="round"/><path d="M95.9156 103.785C95.9156 107.914 95.9156 116.563 95.9156 118.745C95.9156 120.927 95.4481 128.173 97.8635 128.952C101.164 129.444 104.505 129.6 107.837 129.42C110.252 129.42 115.161 129.42 116.797 129.42" stroke="#4F4F4F" stroke-width="4.71" stroke-linecap="round" stroke-linejoin="round"/><path d="M55.2433 149.912C56.7948 149.809 58.3393 150.198 59.6575 151.022C60.9756 151.847 62.0006 153.066 62.587 154.506C63.1734 155.946 63.2914 157.534 62.9243 159.045C62.5571 160.556 61.7235 161.913 60.5417 162.924C59.0095 163.633 57.2886 163.825 55.6378 163.471C53.9871 163.117 52.4959 162.237 51.3886 160.963C50.2812 159.689 49.6178 158.089 49.4979 156.405C49.3781 154.721 49.8084 153.044 50.7242 151.626C52.0108 150.59 53.5933 149.99 55.2433 149.912Z" stroke="#4F4F4F" stroke-width="4.71" stroke-linecap="round" stroke-linejoin="round"/><path d="M15.5833 158.249C25.4787 158.249 35.3741 157.314 45.2695 157.392" stroke="#4F4F4F" stroke-width="4.71" stroke-linecap="round" stroke-linejoin="round"/><path d="M63.1901 157.391C96.3046 159.962 130.354 158.092 163.547 158.326" stroke="#4F4F4F" stroke-width="4.71" stroke-linecap="round" stroke-linejoin="round"/></svg>